<svg width="20" height="20" viewBox="0 0 20 20" fill="none" xmlns="http://www.w3.org/2000/svg">
<path d="M16.6292 3.37088C14.871 1.61272 12.4864 0.625 10 0.625C7.51361 0.625 5.12904 1.61272 3.37088 3.37088C1.61272 5.12904 0.625 7.51361 0.625 10C0.625 12.4864 1.61272 14.871 3.37088 16.6292C5.12904 18.3873 7.51361 19.375 10 19.375C12.4864 19.375 14.871 18.3873 16.6292 16.6292C18.3873 14.871 19.375 12.4864 19.375 10C19.375 7.51361 18.3873 5.12904 16.6292 3.37088ZM10 18.125C5.5199 18.125 1.87502 14.4801 1.87502 10C1.87502 5.5199 5.5199 1.87502 10 1.87502C14.4801 1.87502 18.125 5.5199 18.125 10C18.125 14.4801 14.4801 18.125 10 18.125Z" fill="white"/>
<path d="M10 5.9375C9.19651 5.9375 8.41107 6.17576 7.743 6.62215C7.07492 7.06855 6.55422 7.70302 6.24674 8.44535C5.93926 9.18767 5.85881 10.0045 6.01556 10.7926C6.17231 11.5806 6.55923 12.3045 7.12738 12.8726C7.69553 13.4408 8.4194 13.8277 9.20745 13.9844C9.99549 14.1412 10.8123 14.0607 11.5547 13.7533C12.297 13.4458 12.9315 12.9251 13.3778 12.257C13.8242 11.5889 14.0625 10.8035 14.0625 10C14.0613 8.92293 13.6329 7.89033 12.8713 7.12873C12.1097 6.36712 11.0771 5.93872 10 5.9375ZM10 12.8125C9.44374 12.8125 8.89997 12.6475 8.43746 12.3385C7.97495 12.0295 7.61446 11.5902 7.40159 11.0763C7.18872 10.5624 7.13302 9.99688 7.24154 9.45131C7.35006 8.90574 7.61793 8.4046 8.01126 8.01126C8.4046 7.61793 8.90574 7.35006 9.45131 7.24154C9.99688 7.13302 10.5624 7.18872 11.0763 7.40159C11.5902 7.61446 12.0295 7.97494 12.3385 8.43746C12.6475 8.89997 12.8125 9.44374 12.8125 10C12.8117 10.7457 12.5151 11.4605 11.9878 11.9878C11.4605 12.5151 10.7457 12.8117 10 12.8125Z" fill="white"/>
<path d="M9.375 9.375H10.625V10.625H9.375V9.375Z" fill="white"/>
<path d="M10 4.37503V3.12503C8.91388 3.12178 7.84276 3.37866 6.87625 3.87417C5.94313 4.35279 5.13068 5.03676 4.5 5.87464L5.49945 6.62538C6.02113 5.9242 6.70014 5.35529 7.48183 4.96443C8.26352 4.57357 9.12605 4.37169 10 4.37503Z" fill="white"/>
</svg>
