<svg width="20" height="20" viewBox="0 0 20 20" fill="none" xmlns="http://www.w3.org/2000/svg">
<path d="M10 1.66602C7.7025 1.66602 5.83333 3.53518 5.83333 5.83268C5.83333 8.13018 7.7025 9.99935 10 9.99935C12.2975 9.99935 14.1667 8.13018 14.1667 5.83268C14.1667 3.53518 12.2975 1.66602 10 1.66602ZM10 8.33268C8.62167 8.33268 7.5 7.21102 7.5 5.83268C7.5 4.45435 8.62167 3.33268 10 3.33268C11.3783 3.33268 12.5 4.45435 12.5 5.83268C12.5 7.21102 11.3783 8.33268 10 8.33268ZM17.5 17.4993V16.666C17.5 13.4502 14.8825 10.8327 11.6667 10.8327H8.33333C5.11667 10.8327 2.5 13.4502 2.5 16.666V17.4993H4.16667V16.666C4.16667 14.3685 6.03583 12.4993 8.33333 12.4993H11.6667C13.9642 12.4993 15.8333 14.3685 15.8333 16.666V17.4993H17.5Z" fill="white"/>
</svg>
