<svg width="18" height="18" viewBox="0 0 18 18" fill="none" xmlns="http://www.w3.org/2000/svg">
<path d="M8.99984 0.666016C4.40484 0.666016 0.666504 4.40435 0.666504 8.99935V12.4518C0.666504 13.3052 1.414 13.9993 2.33317 13.9993H3.1665C3.38752 13.9993 3.59948 13.9116 3.75576 13.7553C3.91204 13.599 3.99984 13.387 3.99984 13.166V8.88018C3.99984 8.65917 3.91204 8.44721 3.75576 8.29093C3.59948 8.13465 3.38752 8.04685 3.1665 8.04685H2.40984C2.87317 4.82185 5.64817 2.33268 8.99984 2.33268C12.3515 2.33268 15.1265 4.82185 15.5898 8.04685H14.8332C14.6122 8.04685 14.4002 8.13465 14.2439 8.29093C14.0876 8.44721 13.9998 8.65917 13.9998 8.88018V13.9993C13.9998 14.9185 13.2523 15.666 12.3332 15.666H10.6665V14.8327H7.33317V17.3327H12.3332C14.1715 17.3327 15.6665 15.8377 15.6665 13.9993C16.5857 13.9993 17.3332 13.3052 17.3332 12.4518V8.99935C17.3332 4.40435 13.5948 0.666016 8.99984 0.666016Z" fill="white"/>
</svg>
