<svg width="26" height="26" viewBox="0 0 26 26" fill="none" xmlns="http://www.w3.org/2000/svg">
<path d="M11.4319 2.89756C11.8711 2.5285 12.4263 2.32617 13 2.32617C13.5737 2.32617 14.1289 2.5285 14.5681 2.89756L21.8806 9.04656C22.1528 9.27528 22.3717 9.56079 22.5219 9.88305C22.672 10.2053 22.7499 10.5565 22.75 10.9121V21.1252C22.75 21.5562 22.5788 21.9695 22.274 22.2742C21.9693 22.579 21.556 22.7502 21.125 22.7502H16.6562C16.2253 22.7502 15.8119 22.579 15.5072 22.2742C15.2025 21.9695 15.0312 21.5562 15.0312 21.1252V15.4377H10.9688V21.1252C10.9688 21.5562 10.7975 21.9695 10.4928 22.2742C10.1881 22.579 9.77473 22.7502 9.34375 22.7502H4.875C4.44402 22.7502 4.0307 22.579 3.72595 22.2742C3.4212 21.9695 3.25 21.5562 3.25 21.1252V10.9112C3.25009 10.5557 3.32796 10.2045 3.47814 9.88223C3.62832 9.55998 3.84718 9.27447 4.11938 9.04574L11.4319 2.89674V2.89756ZM13.5232 4.14068C13.3768 4.01738 13.1915 3.94976 13 3.94976C12.8085 3.94976 12.6232 4.01738 12.4768 4.14068L5.16425 10.2913C5.07386 10.3674 5.00116 10.4623 4.9512 10.5693C4.90124 10.6764 4.87524 10.7931 4.875 10.9112V21.1244H9.34375V15.4369C9.34375 15.0059 9.51496 14.5926 9.8197 14.2878C10.1244 13.9831 10.5378 13.8119 10.9688 13.8119H15.0312C15.4622 13.8119 15.8756 13.9831 16.1803 14.2878C16.485 14.5926 16.6562 15.0059 16.6562 15.4369V21.1244H21.125V10.9112C21.125 10.7928 21.0991 10.6758 21.0491 10.5685C20.9992 10.4611 20.9263 10.3659 20.8357 10.2897L13.5232 4.14068Z" fill="white"/>
<path d="M11.4319 2.89756C11.8711 2.5285 12.4263 2.32617 13 2.32617C13.5737 2.32617 14.1289 2.5285 14.5681 2.89756L21.8806 9.04656C22.1528 9.27528 22.3717 9.56079 22.5219 9.88305C22.672 10.2053 22.7499 10.5565 22.75 10.9121V21.1252C22.75 21.5562 22.5788 21.9695 22.274 22.2742C21.9693 22.579 21.556 22.7502 21.125 22.7502H16.6562C16.2253 22.7502 15.8119 22.579 15.5072 22.2742C15.2025 21.9695 15.0312 21.5562 15.0312 21.1252V15.4377H10.9688V21.1252C10.9688 21.5562 10.7975 21.9695 10.4928 22.2742C10.1881 22.579 9.77473 22.7502 9.34375 22.7502H4.875C4.44402 22.7502 4.0307 22.579 3.72595 22.2742C3.4212 21.9695 3.25 21.5562 3.25 21.1252V10.9112C3.25009 10.5557 3.32796 10.2045 3.47814 9.88223C3.62832 9.55998 3.84718 9.27447 4.11938 9.04574L11.4319 2.89674V2.89756ZM13.5232 4.14068C13.3768 4.01738 13.1915 3.94976 13 3.94976C12.8085 3.94976 12.6232 4.01738 12.4768 4.14068L5.16425 10.2913C5.07386 10.3674 5.00116 10.4623 4.9512 10.5693C4.90124 10.6764 4.87524 10.7931 4.875 10.9112V21.1244H9.34375V15.4369C9.34375 15.0059 9.51496 14.5926 9.8197 14.2878C10.1244 13.9831 10.5378 13.8119 10.9688 13.8119H15.0312C15.4622 13.8119 15.8756 13.9831 16.1803 14.2878C16.485 14.5926 16.6562 15.0059 16.6562 15.4369V21.1244H21.125V10.9112C21.125 10.7928 21.0991 10.6758 21.0491 10.5685C20.9992 10.4611 20.9263 10.3659 20.8357 10.2897L13.5232 4.14068Z" fill="url(#paint0_linear)"/>
<defs>
<linearGradient id="paint0_linear" x1="3.12" y1="14.5594" x2="22.88" y2="15.0794" gradientUnits="userSpaceOnUse">
<stop offset="0.484375" stop-color="white"/>
<stop offset="1" stop-color="white"/>
</linearGradient>
</defs>
</svg>
