<svg width="24" height="24" viewBox="0 0 24 24" fill="none" xmlns="http://www.w3.org/2000/svg">
<path d="M12 2L8 7H11V16H13V7H16L12 2Z" fill="white"/>
<path d="M21.0009 13.0007C21.0042 11.8182 20.7728 10.6469 20.3202 9.55447C19.8675 8.46206 19.2026 7.47032 18.3639 6.63672L16.9499 8.05072C18.2719 9.37272 19.0009 11.1307 19.0009 13.0007C19.0009 14.8707 18.2719 16.6287 16.9499 17.9507C15.6279 19.2727 13.8699 20.0017 11.9999 20.0017C10.1299 20.0017 8.37194 19.2727 7.04994 17.9507C5.72794 16.6287 4.99894 14.8707 4.99894 13.0007C4.99894 11.1307 5.72794 9.37272 7.04994 8.05072L5.63594 6.63672C3.93594 8.33572 2.99894 10.5957 2.99894 13.0007C2.99894 15.4057 3.93594 17.6657 5.63594 19.3647C7.33494 21.0647 9.59494 22.0017 11.9999 22.0017C14.4049 22.0017 16.6649 21.0647 18.3639 19.3647C19.2026 18.5311 19.8675 17.5394 20.3202 16.447C20.7728 15.3546 21.0042 14.1832 21.0009 13.0007Z" fill="white"/>
</svg>
