<svg width="22" height="28" viewBox="0 0 22 28" fill="none" xmlns="http://www.w3.org/2000/svg">
<path d="M11 0C9.01389 0 7.29514 0.692708 5.84375 2.07812C4.39236 3.46354 3.66667 5.10417 3.66667 7V10.5C2.63542 10.5 1.76649 10.8372 1.0599 11.5117C0.353299 12.1862 0 13.0156 0 14V24.5C0 25.4844 0.353299 26.3138 1.0599 26.9883C1.76649 27.6628 2.63542 28 3.66667 28H18.3333C19.3646 28 20.2335 27.6628 20.9401 26.9883C21.6467 26.3138 22 25.4844 22 24.5V14C22 13.0156 21.6467 12.1862 20.9401 11.5117C20.2335 10.8372 19.3646 10.5 18.3333 10.5V7C18.3333 5.10417 17.6076 3.46354 16.1562 2.07812C14.7049 0.692708 12.9861 0 11 0ZM19.5365 14V24.5C19.5365 25.2656 19.1354 25.6484 18.3333 25.6484H3.66667C2.86458 25.6484 2.46354 25.2656 2.46354 24.5V14C2.46354 13.2344 2.86458 12.8516 3.66667 12.8516H18.3333C19.1354 12.8516 19.5365 13.2344 19.5365 14ZM6.13021 10.5V7C6.13021 5.72396 6.60764 4.63021 7.5625 3.71875C8.51736 2.80729 9.66319 2.35156 11 2.35156C12.3368 2.35156 13.4826 2.80729 14.4375 3.71875C15.3924 4.63021 15.8698 5.72396 15.8698 7V10.5H6.13021ZM11 14C9.96875 14 9.09983 14.3372 8.39323 15.0117C7.68663 15.6862 7.33333 16.5156 7.33333 17.5C7.33333 18.2292 7.5625 18.8945 8.02083 19.4961C8.47917 20.0977 9.07118 20.526 9.79688 20.7812V22.1484C9.79688 22.9505 10.1979 23.3516 11 23.3516C11.8021 23.3516 12.2031 22.9505 12.2031 22.1484V20.7812C13.8455 20.2344 14.6667 19.1406 14.6667 17.5C14.6667 16.5156 14.3134 15.6862 13.6068 15.0117C12.9002 14.3372 12.0312 14 11 14ZM11 18.6484C10.1979 18.6484 9.79688 18.2656 9.79688 17.5C9.79688 16.7344 10.1979 16.3516 11 16.3516C11.8021 16.3516 12.2031 16.7344 12.2031 17.5C12.2031 18.2656 11.8021 18.6484 11 18.6484Z" fill="#F68128"/>
</svg>
