<svg width="22" height="22" viewBox="0 0 22 22" fill="none" xmlns="http://www.w3.org/2000/svg">
<path d="M5.1245 18.9563L2.96608 19.0716L2.85008 16.9263L14.3655 4.14868L16.6718 6.20753L5.1245 18.9563Z" fill="white"/>
<path d="M17.11 5.7197L14.8058 3.66308L15.9836 2.40078C16.1652 2.19862 16.4538 2.07758 16.7265 2.06301C16.8608 2.05549 16.9952 2.07447 17.122 2.11886C17.2489 2.16325 17.3656 2.23216 17.4655 2.32163L18.1685 2.94909C18.2683 3.03813 18.3494 3.14591 18.4071 3.26623C18.4648 3.38655 18.498 3.51702 18.5047 3.65014C18.5195 3.92318 18.4289 4.21946 18.2465 4.42127L17.11 5.7197Z" fill="white"/>
</svg>
