<svg width="18" height="18" viewBox="0 0 18 18" fill="none" xmlns="http://www.w3.org/2000/svg">
<path d="M17.061 15.4613C16.5253 14.9837 16.0563 14.4362 15.6666 13.8335C15.2411 13.0016 14.9861 12.0931 14.9166 11.1613V8.41688C14.9143 8.08352 14.8846 7.75092 14.8277 7.42244C14.3904 7.33503 13.9701 7.17744 13.5832 6.95577C13.7307 7.43069 13.8056 7.92515 13.8054 8.42244V11.1669C13.8735 12.3036 14.1862 13.4121 14.7221 14.4169C15.1057 15.0247 15.5608 15.5842 16.0777 16.0836H1.84989C2.36679 15.5842 2.82189 15.0247 3.20545 14.4169C3.74134 13.4121 4.05402 12.3036 4.12211 11.1669V8.41688C4.11919 7.77393 4.24312 7.13672 4.4868 6.54173C4.73049 5.94674 5.08914 5.40566 5.54223 4.94947C5.99532 4.49329 6.53395 4.13096 7.12726 3.88322C7.72058 3.63549 8.35693 3.50723 8.99989 3.50577C9.94087 3.50653 10.8607 3.7848 11.6443 4.30577C11.5579 3.98854 11.5095 3.66219 11.4999 3.33355V2.98355C10.9198 2.69819 10.2966 2.51049 9.65545 2.42799V1.72799C9.65545 1.53129 9.57731 1.34265 9.43822 1.20356C9.29913 1.06447 9.11048 0.986328 8.91378 0.986328C8.71708 0.986328 8.52843 1.06447 8.38934 1.20356C8.25025 1.34265 8.17211 1.53129 8.17211 1.72799V2.45577C6.7364 2.6583 5.42243 3.37341 4.47279 4.46907C3.52315 5.56473 3.00196 6.96696 3.00545 8.41688V11.1613C2.93587 12.0931 2.68088 13.0016 2.25545 13.8335C1.8726 14.4349 1.41111 14.9823 0.883225 15.4613C0.823965 15.5134 0.77647 15.5775 0.743901 15.6493C0.711332 15.7212 0.694436 15.7991 0.694336 15.878V16.6335C0.694336 16.7809 0.752867 16.9222 0.857054 17.0264C0.961241 17.1306 1.10255 17.1891 1.24989 17.1891H16.6943C16.8417 17.1891 16.983 17.1306 17.0872 17.0264C17.1914 16.9222 17.2499 16.7809 17.2499 16.6335V15.878C17.2498 15.7991 17.2329 15.7212 17.2003 15.6493C17.1678 15.5775 17.1203 15.5134 17.061 15.4613Z" fill="white"/>
</svg>
